<svg xmlns="http://www.w3.org/2000/svg" viewBox="0 0 240 80"><g><circle cx="40" cy="40" r="38" fill="none" stroke="#fff" stroke-width="4" opacity="0.2"/><path d="M40,2A38,38,0,0,1,78,40" fill="none" stroke="#fff" stroke-linecap="round" stroke-width="4"/></g><g transform="translate(80,0)"><path d="M31,28.21V51.79a2.25,2.25,0,0,0,3.38,1.95l20.4-11.79a2.25,2.25,0,0,0,0-3.9L34.38,26.27A2.25,2.25,0,0,0,31,28.21Z" fill="#fff"/><circle cx="40" cy="40" r="38" fill="none" stroke="#fff" stroke-width="4"/></g><g transform="translate(160,0)"><circle cx="40" cy="40" r="38" fill="none" stroke="#fff" stroke-width="4"/><rect x="30" y="26" width="6" height="28" rx="2" ry="2" fill="#fff"/><rect x="44" y="26" width="6" height="28" rx="2" ry="2" fill="#fff"/></g></svg>
